<mxfile host="app.diagrams.net" agent="Mozilla/5.0 (Windows NT 10.0; Win64; x64) AppleWebKit/537.36 (KHTML, like Gecko) Chrome/134.0.0.0 Safari/537.36" version="26.1.3">
  <diagram name="Page-1" id="8EPzsp38D10i_pOiJQ0M">
    <mxGraphModel dx="1750" dy="928" grid="1" gridSize="10" guides="1" tooltips="1" connect="1" arrows="1" fold="1" page="1" pageScale="1" pageWidth="850" pageHeight="1100" background="none" math="0" shadow="0">
      <root>
        <mxCell id="0" />
        <mxCell id="1" parent="0" />
        <mxCell id="qRNp06yotatBLVblW4fN-36" style="edgeStyle=orthogonalEdgeStyle;rounded=0;orthogonalLoop=1;jettySize=auto;html=1;" edge="1" parent="1" source="qRNp06yotatBLVblW4fN-1">
          <mxGeometry relative="1" as="geometry">
            <mxPoint x="189" y="276" as="targetPoint" />
          </mxGeometry>
        </mxCell>
        <mxCell id="qRNp06yotatBLVblW4fN-1" value="" style="outlineConnect=0;dashed=0;verticalLabelPosition=bottom;verticalAlign=top;align=center;html=1;shape=mxgraph.aws3.android;fillColor=#8CC64F;gradientColor=none;" vertex="1" parent="1">
          <mxGeometry x="44" y="326" width="73.5" height="84" as="geometry" />
        </mxCell>
        <mxCell id="qRNp06yotatBLVblW4fN-32" value="" style="edgeStyle=orthogonalEdgeStyle;rounded=0;orthogonalLoop=1;jettySize=auto;html=1;" edge="1" parent="1" source="qRNp06yotatBLVblW4fN-2" target="qRNp06yotatBLVblW4fN-30">
          <mxGeometry relative="1" as="geometry" />
        </mxCell>
        <mxCell id="qRNp06yotatBLVblW4fN-2" value="" style="outlineConnect=0;dashed=0;verticalLabelPosition=bottom;verticalAlign=top;align=center;html=1;shape=mxgraph.aws3.android;fillColor=#8CC64F;gradientColor=none;" vertex="1" parent="1">
          <mxGeometry x="509" y="201" width="73.5" height="84" as="geometry" />
        </mxCell>
        <mxCell id="qRNp06yotatBLVblW4fN-35" style="edgeStyle=orthogonalEdgeStyle;rounded=0;orthogonalLoop=1;jettySize=auto;html=1;" edge="1" parent="1" source="qRNp06yotatBLVblW4fN-3">
          <mxGeometry relative="1" as="geometry">
            <mxPoint x="209" y="276" as="targetPoint" />
          </mxGeometry>
        </mxCell>
        <mxCell id="qRNp06yotatBLVblW4fN-3" value="" style="outlineConnect=0;dashed=0;verticalLabelPosition=bottom;verticalAlign=top;align=center;html=1;shape=mxgraph.aws3.android;fillColor=#8CC64F;gradientColor=none;" vertex="1" parent="1">
          <mxGeometry x="260" y="326" width="73.5" height="84" as="geometry" />
        </mxCell>
        <mxCell id="qRNp06yotatBLVblW4fN-4" value="" style="outlineConnect=0;dashed=0;verticalLabelPosition=bottom;verticalAlign=top;align=center;html=1;shape=mxgraph.aws3.android;fillColor=#8CC64F;gradientColor=none;" vertex="1" parent="1">
          <mxGeometry x="163.25" y="136" width="73.5" height="84" as="geometry" />
        </mxCell>
        <mxCell id="qRNp06yotatBLVblW4fN-9" value="Microservice Arch" style="shape=ellipse;fillColor=#A56EFF;aspect=fixed;resizable=0;labelPosition=center;verticalLabelPosition=bottom;align=center;verticalAlign=top;strokeColor=none;fontSize=14;" vertex="1" parent="1">
          <mxGeometry x="375" y="61" width="48" height="48" as="geometry" />
        </mxCell>
        <mxCell id="qRNp06yotatBLVblW4fN-10" value="" style="fillColor=#ffffff;strokeColor=none;dashed=0;outlineConnect=0;html=1;labelPosition=center;verticalLabelPosition=bottom;verticalAlign=top;part=1;movable=0;resizable=0;rotatable=0;shape=mxgraph.ibm_cloud.microservices--1" vertex="1" parent="qRNp06yotatBLVblW4fN-9">
          <mxGeometry width="24" height="24" relative="1" as="geometry">
            <mxPoint x="12" y="12" as="offset" />
          </mxGeometry>
        </mxCell>
        <mxCell id="qRNp06yotatBLVblW4fN-19" style="edgeStyle=orthogonalEdgeStyle;rounded=0;orthogonalLoop=1;jettySize=auto;html=1;" edge="1" parent="1" source="qRNp06yotatBLVblW4fN-11">
          <mxGeometry relative="1" as="geometry">
            <mxPoint x="519" y="861.0000000000002" as="targetPoint" />
          </mxGeometry>
        </mxCell>
        <mxCell id="qRNp06yotatBLVblW4fN-11" value="" style="sketch=0;points=[[0,0,0],[0.25,0,0],[0.5,0,0],[0.75,0,0],[1,0,0],[0,1,0],[0.25,1,0],[0.5,1,0],[0.75,1,0],[1,1,0],[0,0.25,0],[0,0.5,0],[0,0.75,0],[1,0.25,0],[1,0.5,0],[1,0.75,0]];outlineConnect=0;fontColor=#232F3E;fillColor=#01A88D;strokeColor=#ffffff;dashed=0;verticalLabelPosition=bottom;verticalAlign=top;align=center;html=1;fontSize=12;fontStyle=0;aspect=fixed;shape=mxgraph.aws4.resourceIcon;resIcon=mxgraph.aws4.cloudendure_migration;" vertex="1" parent="1">
          <mxGeometry x="266.75" y="721" width="60" height="60" as="geometry" />
        </mxCell>
        <mxCell id="qRNp06yotatBLVblW4fN-20" style="edgeStyle=orthogonalEdgeStyle;rounded=0;orthogonalLoop=1;jettySize=auto;html=1;" edge="1" parent="1" source="qRNp06yotatBLVblW4fN-14">
          <mxGeometry relative="1" as="geometry">
            <mxPoint x="549" y="861.0000000000002" as="targetPoint" />
          </mxGeometry>
        </mxCell>
        <mxCell id="qRNp06yotatBLVblW4fN-14" value="&lt;div style=&quot;line-height: 160%;&quot;&gt;CREATE BLOGS&lt;div&gt;DELETE BLOGS&lt;br&gt;&lt;span style=&quot;background-color: transparent; color: light-dark(rgb(0, 0, 0), rgb(255, 255, 255));&quot;&gt;GET BLOGS&lt;/span&gt;&lt;/div&gt;&lt;div&gt;SHARE BLOGS&lt;/div&gt;&lt;div&gt;&lt;br&gt;&lt;/div&gt;&lt;/div&gt;" style="text;html=1;align=left;verticalAlign=middle;resizable=0;points=[];autosize=1;strokeColor=none;fillColor=none;" vertex="1" parent="1">
          <mxGeometry x="249" y="479" width="120" height="110" as="geometry" />
        </mxCell>
        <mxCell id="qRNp06yotatBLVblW4fN-15" value="" style="dashed=0;outlineConnect=0;html=1;align=center;labelPosition=center;verticalLabelPosition=bottom;verticalAlign=top;shape=mxgraph.webicons.mongodb;gradientColor=#DFDEDE" vertex="1" parent="1">
          <mxGeometry x="489" y="881" width="102.4" height="102.4" as="geometry" />
        </mxCell>
        <mxCell id="qRNp06yotatBLVblW4fN-18" style="edgeStyle=orthogonalEdgeStyle;rounded=0;orthogonalLoop=1;jettySize=auto;html=1;" edge="1" parent="1" source="qRNp06yotatBLVblW4fN-16">
          <mxGeometry relative="1" as="geometry">
            <mxPoint x="296.75" y="701.0000000000002" as="targetPoint" />
          </mxGeometry>
        </mxCell>
        <mxCell id="qRNp06yotatBLVblW4fN-16" value="&lt;span style=&quot;text-align: left;&quot;&gt;UPLOAD IMAGES&lt;/span&gt;" style="text;html=1;align=center;verticalAlign=middle;resizable=0;points=[];autosize=1;strokeColor=none;fillColor=none;" vertex="1" parent="1">
          <mxGeometry x="236.75" y="589" width="120" height="30" as="geometry" />
        </mxCell>
        <mxCell id="qRNp06yotatBLVblW4fN-21" value="&lt;div style=&quot;line-height: 160%;&quot;&gt;OTP&lt;br&gt;REGISTER&lt;br&gt;&lt;/div&gt;" style="text;html=1;align=left;verticalAlign=middle;resizable=0;points=[];autosize=1;strokeColor=none;fillColor=none;" vertex="1" parent="1">
          <mxGeometry x="44" y="569" width="80" height="50" as="geometry" />
        </mxCell>
        <mxCell id="qRNp06yotatBLVblW4fN-22" value="&lt;div style=&quot;line-height: 160%;&quot;&gt;LOGIN&lt;/div&gt;&lt;div style=&quot;line-height: 160%;&quot;&gt;JWT&lt;br&gt;LOGOUT&lt;/div&gt;&lt;div style=&quot;line-height: 160%;&quot;&gt;ENCRYPTION&lt;/div&gt;" style="text;html=1;align=left;verticalAlign=middle;resizable=0;points=[];autosize=1;strokeColor=none;fillColor=none;" vertex="1" parent="1">
          <mxGeometry x="44" y="479" width="100" height="90" as="geometry" />
        </mxCell>
        <mxCell id="qRNp06yotatBLVblW4fN-27" value="" style="edgeStyle=segmentEdgeStyle;endArrow=classic;html=1;curved=0;rounded=0;endSize=8;startSize=8;sourcePerimeterSpacing=0;targetPerimeterSpacing=0;" edge="1" parent="1" source="qRNp06yotatBLVblW4fN-21">
          <mxGeometry width="100" relative="1" as="geometry">
            <mxPoint x="79" y="701" as="sourcePoint" />
            <mxPoint x="479" y="911" as="targetPoint" />
            <Array as="points">
              <mxPoint x="149" y="644" />
              <mxPoint x="149" y="911" />
            </Array>
          </mxGeometry>
        </mxCell>
        <mxCell id="qRNp06yotatBLVblW4fN-28" value="&lt;div style=&quot;text-align: left;&quot;&gt;&lt;span style=&quot;background-color: transparent; color: light-dark(rgb(0, 0, 0), rgb(255, 255, 255));&quot;&gt;STORE URL&lt;/span&gt;&lt;/div&gt;" style="text;html=1;align=center;verticalAlign=middle;resizable=0;points=[];autosize=1;strokeColor=none;fillColor=none;" vertex="1" parent="1">
          <mxGeometry x="349" y="751" width="90" height="30" as="geometry" />
        </mxCell>
        <mxCell id="qRNp06yotatBLVblW4fN-29" style="edgeStyle=orthogonalEdgeStyle;rounded=0;orthogonalLoop=1;jettySize=auto;html=1;" edge="1" parent="1">
          <mxGeometry relative="1" as="geometry">
            <mxPoint x="549" y="301" as="targetPoint" />
            <mxPoint x="369" y="509.61" as="sourcePoint" />
            <Array as="points">
              <mxPoint x="549" y="510" />
              <mxPoint x="549" y="336" />
            </Array>
          </mxGeometry>
        </mxCell>
        <mxCell id="qRNp06yotatBLVblW4fN-34" value="" style="edgeStyle=orthogonalEdgeStyle;rounded=0;orthogonalLoop=1;jettySize=auto;html=1;" edge="1" parent="1" source="qRNp06yotatBLVblW4fN-30" target="qRNp06yotatBLVblW4fN-31">
          <mxGeometry relative="1" as="geometry" />
        </mxCell>
        <mxCell id="qRNp06yotatBLVblW4fN-30" value="" style="shape=image;verticalLabelPosition=bottom;labelBackgroundColor=default;verticalAlign=top;aspect=fixed;imageAspect=0;image=data:image/png,iVBORw0KGgoAAAANSUhEUgAAASsAAACoCAMAAACPKThEAAAAk1BMVEX////yZyK5ubnxXAC1tbXyZBvyYAj60cPxWQDyZh/0glHn5+fxVwDGxsb0gEz+9vHx8fHzcTH4tp3959/1il7zbS7/+fX6y7r71sf2l3HLy8vp6en6ybfyYRHS0tL5w7D5vqje3t71kmvzeEH95dz839P2nnz1iFn3qYz2m3f3pYbzdDnwSgD0e0X4rpL+8On4sZiYNI4qAAALs0lEQVR4nO2di3aqOhCGxZgILVZbrbW2Ubxrbavv/3SbCQKTC4hapXTnX2edVYEE8pmZTCbBXatZWVlZWVlZWVlZWVlZWVlZWVlZWVlZWVlZWVlZWVlZWVlZWVlZWZWiNlLmNbtU59yjj3VuBcfqP3r/c26MtSS+m8hnT6Zrxh6+xp9mIs3U1kcizt26edqDNz99/zPnW/oKq53mlH+F+34uTrqnphlzsDzXcMe170kXcXoyrAcq3YVyQjbdE8o3ieO4OaxW1OGvOeWXPLwtmZ9wR13fxFHkv6jXzH31Gp73FRols4oqcdfFy/8GVo6nNoH21Gs+uNZOcqrpC1YMTJiEYlzcltwVLv8bWDENg/eoXtPT+4R7iv2AgBUZw8jQnS+awcYhQIsV7p+XstowSqmv+Kvd7CRfciYrcharATrwzqBWd1yw/KWs1rOvr6+t3K/2xD/JPG7KqomP7MD8Padg+UtZ6eo+EqcqrGoLFzpWM6OAop9n9R7evjKsoH0O/yhW/udZvZAqsQrCm9OCQ+H/zmoQWoH3XKz8/85qEca4nles/H/PyjXdzaz/nRW0n67kY/Px+nU6XT6pU+uUVTdYTqcf78r5lNXg+3W62efPkiHl8A41tk9JQJTJas+VcbD/7bmMc0o5C6fWUi+KWXVXPoMLCJEH0JjVmLphBZy5j8rNPMb8/eHvJ58xJiZunAn5QZE2lMlqC8fQTP2FMTQ75VLodWD17ifPwhwM88Cq58Y1UH8p3eyZOkm+KVBbzYIibSiRFTTfY2n3DyDz43E/nF37AM3D0zfBqj0IRwPuE9eFJ6IUwYpY9ZhDiR8Vd4gE69lDrEg4ORSNopFIUKQNJc5xINfAvpPPMCo6lO8XoQ/pBl54PUVPAqxIWMQj626/v1hBKonO0vPAahmG4nz70u7vAq5NNjGr91Wv14MnoqtId1oeyqTSWC2oQmMGn7fxxL8dtg1PgMQ48M09epj+irwb6g4hK7qceewwFrbBvj2OfDZmldTon9SGkvIM81fIyXCeWtHclauFgAJFAc0oJ+kmmYIpBxjJeZgvOV46qu6gOrZPzuusRMzwe3My41232100g+WzH7aUuiv0vQdESTN+UZyFiFih1rZFx0psJ2LF0rY/MYll1ViJvKjvi6xo6MO/JPf1EY71boAOrEOcbvJJsJIyOJCtpUmuULDiqfer9aFlbtqTq8YK3eQ5UIPwvvgv1ViKqwUrzCKK+mn8SbCSAvspZDHSjH51WTnedn/kOeW2CFaulNf0wPvHYQWwog/4NMTl6EjVWDFYlwijI0gfe4wYlyIz2iKCMXmevRIuEH2QWXShBE06ZsVYkRdY2d7tFsGDCK/dZV4JnRWVJ8fg0BIjA1auNAnsUw9Csvhj1VilnnbwDHXmTsMGGitlTVykCmPnLljJU+AtsErwVZdVrQ3exiOmS9vz5jgIAvDNMivDHClJq66ots5xJ003K8xKJEVTd5MeXj6KxVYmlsRkVr68ZAUDYTLNgbhdcu3RQJjeoMqsopFLXuPu77nL8UK4wkoOMyDS97ZpbeqC+SvHCYRKsxIjG8VHxlzkBygjELIyjZWSF12orJS86B9i1RaBNTKrDQyOYSixehp0d+3+mB1hNVBtUGHV+zs2GPne1GEtRZqFJyGq3JaBzuoFp6ANNiinNqrNSqSQkxAL0ngOn6U45H4FnUjx7RAzJJmInu7bH/9KzFCLugr9ij99ifQVOg1z47Qt4JyUmAG2CfE46xI6J2WpUdj4X4hFRWNE1HCIH0W+ieDA+0uKr3Z6LLrFNgZk5VgUvgqE7zqstNXNOwOrU3deGliJfXLxvERpWTidA3hpW/pSBga0I7jfgMXK9a/lEldhpS1Z9rm290/9io/LxGqDBnUpCAeJjXioLaIC3HEgmZcarUijSstg8E2goeM6rNT127XhGjSBLyYTK+ychfNCaw2iW+G2QDeRwnxgkba+L/KH6DSgwOvKRlbuSZsiDRwcIu15fdJ234Low2mwTKzwfoYddl61yBlJrETkiWZ830xmISJPlAuE+SbfpJ81VgPdAx6RiZXDtkHzoGBmRAXR9folVwPJlE2sagThgBE+ybDsttyR54NRDTxZe3iHEIOgtQexWdpN8+9iLy16BI3VTmTETvnGjaxgmnEQ0/16bIac5MqV0lNGVvig6CdR49t7Qh22oTIrsX7IH4TVtD9E4IpDDNGxHHcvGr/Yig8BOq2xgiOh2Uf1FfJbZlY/I4ICaSOrDxQh9cVckDm96ReBMW06V33vN5gpJY+96YPYjEC51HP7oicy/jDtPRL4k2zwaZ2V8MOUbHvTO3WD8u1Z4dcKjKykWcpAvJzhicVz2Iyw0MaptU+TK0Iqz8p43d6KxoSnxQzclzeH6Kxqjtj+AfW55bNCI+rMJ+RT3Ufb/QxNNcn3DSiJWsn9WUh1EZ78lG1j8OhyGhFlrmGj6dpl4nToH9xn5WbcJf5ePtR+8KNwyPsF/QoFTIvmYNDU9pqFBwdop1Vwx12Xz9biydtQQi0wWG55iNdbPRk9TDvoObD28bjRS4a1aZONweYxvCOhz4Vih1uxKqoC28aObS078dW34q/K/TZWv1mWVXFZVsVlWRWXZVVcllVxWVbFVQ1Wnclo2GoNR/edH6rwLN2KVatRD9VoZD7IRFxQb9xrZzqjsFw9Otto6edvppuxqmehOHbB6MDpoEa9tL51Y1b1VtaDNMysOvUYVSP5Y3I1Gvm6NassI5yYWXUOlllvjSaTUatRKqwLWFGGxE35UxOrDCPMOK/0pM7B7ZXjtM5m5ZFeME71ZMrLK6xaOUbYOJyXMYgSDVwk6n/ZQ8Q1dS4rj6vpscA9xmo4ymzmfQN6T0Nhdd/Q6Uawhj/U/JN0LitD1nWv1aX2qzcVhnS63lFPRxaoXDoUHauMwfBMVvqPztSiJblcVpGlmR4DToxUVqJb6Y5cdKzR5U0/WWeyMr6cOFX9u8ZqmGGEwgQ7KquWqVuFAVdZHutMVuTdUNer+ntGGqv7DCMUVGoqK3O3iuKIMobC27KqZYyEwgRVVsKLmxxTvSTvfmNWZiOMTFBlNcwKMUZm27y6bszKbISRCaqs6lk+/D6rw11ZN2ZlHgkjE1RZZbqlyGG9/UDrT9OtWZmM8GCCCqu37N5T0qTw1qxMRngwQYVV5NqND51pndfVrVkJy1LGsIMJmliZPXirnIHw5qx0I4xNUGGVM9rlTcKvqJuz0o0wNkGF1TCbVc6pa+pcVqbfbzw+xwFpfSI2QYVVTuepFituev12e3TuDFKNMDHB4qxKCkbPzckQff/Ti5btM7JSjTAxwT/Lis7UXUtzpr0yYGSljoSJCf5ZVg71nuboN90XH0R/u8LMSjbC1AT/LivHYy7+SXb996WzWN3rSKI/TxsHKxMzFJOZlWyEqQkWj6/+I1bYCJEJFo/bh5WK2y9ihY0QmaDCKifz0qrUfPAiVjXULZAJKqxyMi/VyjNcxio1QmyCplyfmUi9Uvmry1ilRohNUGWVGTR0srM1V1UprNKREJugyipzIMzx+ldVOaxiI5xgE1RZZTqskobBkljFRiiZoLY+WM9gUrH1wQtZxUYomaDGKiOLnJNcvq5KYhUZoTQK6qxq5i0xWd3t6iqJlaD0NpR9tMZqZLK2UUmrg6WxirKjSvitsYq6kMwlssBK7b+6lFWURZBB6KzetC2Ph13J18KRq7JY3ce7itExndUBTaMVRQ6dyWFXcjnbtg2/f/JzQv+cnMoq3qONZ8AGVnE/Ovz/UGgyGcF7FLcOHDamHN1PKf1pCZ3VUPdFJlbJZm5JGZvhr6ydcbP1z4ih13E0Vve64zGyivdpm3TrgHQHvwZwFUn/Jmer0WjI8+AGSEpCdeCIofnihRyjbh68z5tXkfx7Mm+hZI8MR5TJ3r12UaLOm0HlvvZlZWVlZWVlZWVlZWVlZWVlZWVlZWVlZWVlZWVlZWVlZWVlZWVlZXWZ/gHzZ/mFyTrhYAAAAABJRU5ErkJggg==;" vertex="1" parent="1">
          <mxGeometry x="691.43" y="171" width="106.79" height="60" as="geometry" />
        </mxCell>
        <mxCell id="qRNp06yotatBLVblW4fN-31" value="" style="shape=image;verticalLabelPosition=bottom;labelBackgroundColor=default;verticalAlign=top;aspect=fixed;imageAspect=0;image=data:image/png,iVBORw0KGgoAAAANSUhEUgAAAQMAAADCCAMAAAB6zFdcAAAA81BMVEX///8QNbz///0RNb4AK7tmfMoAJ7r9//+TpNIAHrPQ2+4RNrsQNb3+//yTpdH+//oAJrTs7vXn7/jS4O0ALrrn8PWKm84AH7AAMbgAGa4AJbwAILAALL/z+P8AH6wAILfE0OcAFq9sgcLf6PTD0uOxvd+jruKVo9imt9+1x+RaccAACbA5Vb0ADK9hesP1//8YOLEuUK15ic4AK65MZsQzS8HEy+fc5fp0jcsAF6YAJ8QzUL6krdWsuONQab4ALa98j8RWb8VAW76LmcdTbb9tecoQNrOLmtcgRq9TcsINNKtRZ8o5ULBJZrhPXbceP64tR6viHiLdAAAMhUlEQVR4nO2dDVvaOhvH26a0lIRRMdryUqByGMJh6KPInDIRt6E78+j5/p/mSUrFQt9R26L5X9sup2lIfiZ37jtv5TgmJiYmJiYmJqb3LFl+/lpIrxip6rnepdIHZSC3/+p87na7+cNeoXyUdmnSUf/vZrUqqRirmvL3ftqlSUc5ERBBKr7a/ZgWgTJAiCcEeF7Kf1wGvC3CQA5/4v2JMXAxYH0hzxXTLk8aWmNQSrs8aYgxYAyomD1gYyMVY8D8A6oVBp+YTWQM2NjIxkbGgNkDxoDZxLTswbMrJmfAK0vFV6atzbDECR+TQVEwPg2UCtWXYRaWdVJgILSPJQwW+rKbwAeGKY2+8D8JLT4QQqWQvb7w9iUShJ4JF2s65F9tNwNeWeJjo8CdiDxcMOAJgwyMxin4SPd4yYDPHoNEfKSjY4Dg00cqGewLCZTIOAWIf2aQPZuYAIMd9RkBnz2bmIg92FEhdDDImj1IiAEPM9wOErGJKww+qE1cY5A9m5hAidb6QtbsQSLxAmOwBTYxaQZZtImMQfLjQvbsQRo+EmOQxb6QPIPs+UjJ+4nZawfMJqZiE+3OIBdlbrHiIocO0GEJYo7wadgDuNIX7JUmqwUuEIRWwXrEKHR+DEdnx1Rngz+5/cPxV9nKQo7ZmlPpC7yTQdFmQNsB/VqOAKHcOb/8plQvLuqYrtZgrGOxetGsVC5zk4IRt0TJx43G6lyaXzLPFmmt0Brfr1RVrAMe0gM4NDPIL1atIMCipE0f9sdlkk4oRewTifjKu7lrov39/R/5/KSLHQzUSWs8Hnc6ne/fJ5PJp3w+v/9j//r6/IdPrxS48smpSnMgxbZOIEFE6k7+h+h8vXUkiYCo1c5OekbUw4qJMJj8LVJJVSKMEXqGABs1RVG0mqpKVOTnkihiLM7dvdLqIeVzEwM8n1OTAm0tVivgUjxCcI4vLk5/H5LmIIRXKREG13XgsIPhgkjdcWVCbIWcV0XAo+W4AqEz2ycETwJYqc46xfBxJhEGvzCMx4CvfPXIpn3TILk4WlGoEG7o++WwwTIRmziKzUBrredR5HoKjpGHnRGP1G87cRi8lY90gyH/QgYC98m07SBp5dGbAknfKGeCgR6HgLUvYbySATGQ+xWAkF3UOAx4fmrE6wtvw2C2MhZEYrDqN5S4rgnCn/OU/hjTHryNn3guYvAMwUkDeqKBUN1b/W10TLAxgz9hlj4RBp9MvU5GfV3XMfnXWRlEnFzyE+IRiPV6naaw0ohTY6UkuzUQy6A4BNQfYSFIIvagdXlzMxpd/fzd7+d+zZzWXZzlhsNcv9+fEY2urkaj0cPNzeDyp7MkAnevx+lKK4K1cSYYOCRwhhQpXpAdX+VrsYbWVQaaERaEJRs7CyTqLVcdDBb70mRbdp3XiizsNDYFQKTPQh3FZGNni0HTUULCQHAxWH/qRPUbVRYREqYBNPkfAh5WQ+2ElirZNRYPBsWiYIU11ic/NwHH7658inwGBairleMrYlBGZ6eNRrMqYjhfSwL+MULrlDoD8q0VBssOsXwob21q9WgJQBt1lhMmxm7n9uFYk/AqLuk23P/PAIOwiaNLysCjFWB9vJ5ULnRnpxrmn/xJgKfld8BAaFeAFwOE78ruxOSvMR42atb4S7qQko9QqmTn0iwG0iqD4FlUoXhYBcjDQYJ6m/ahtSGEs75z1JvVJAQhqD8sulhwqRIfG4t7tXUGQYOXzB3UAe8OvVG1a/3U/SQhSvJsdx81vT4vR5mlTdZHogbQi4H/EzL3Hynf3MUAmIb9c9cTMmk8RVKR3tVju0hrH4tBMj6Sqy8ESp7zHs2AxwO6yuBdNWedZVd/cSsFHykegx3NCwGPf7/eMaDEGcTsC1xb8YwV8M83YpCEPYhpE7mCRhG4xkYEt5hB3HZQ0HgvBqBReLXCZt4mFjTk6R5MR1zxlRpC5m1i24cBH8kFjKTE/cS4faGs+k0hUQivUt7E44W4DI7+sVZK3AggNId2xPBCEsnHTB4MAjWg9feIGwkZPO0e0QX5F/bgFOLGWPZA4M5F3rMd0O8CaX779cW2MfsMepIvA9IW9Ko5+OxepI6lxMeFuHGjUG74M7AaA1a0GZ1P2thnyoKPFDLv+wfDIAZUWJ0Pl5NKsVEkzoDbi+cfkBi4AUNWK0kVUL05vS3QbSfxrUPm/UTSTO5gpIVmIFXu8+75tXBl3k8k6iheY6NbCGC18Zv2iXimPes2kT7E3dSjLjoTDOZ9+KrKqrJvE2VO2G3EWHiHemUQj8I22AOOOzTjbMTi68q/7Ril2gZ7QHQgeVTWVwDUv+W5yJVJfn0hbrzAWS3hSo3RHQDmYe2hnKl9qkttZBMtySPfGNotaxejOG1FdB0zHzs/Sf5lRm8IFgho9qK1hKzHTA7dmn5r8H4UvnW4YgSjsD0MBK41l2JtyUG0JUTIP/NzaUuRRMbQFONszkJ8sxAh5yz4SFFsoqUSN75rxuoO6C7CqZYU4sb4Y+OTZFK8yVzF0XsExMPwbLfAT1zT0eRRi77/GdHBIURb4ic68+Dk3o0pRt23XX8MzTHza67rki27/fX2URHpQaZQgdNJmKuUDZsYOx/yTOtgqkU51AHOwnLbgrk0r3xkmeRkdAaKyKM5DuoWgFfHIdNr22cTV9S+vWviwNESAJwLcXu2zyauqsi1cg0R+5sGQMbHkEtbtyVuDNJOXj31nXFEEDZbwc9nIW58GYIiPQ9w3tR9GEA4F7vBOWxPzOSbp/Wn8OhrFiD+HZzD9jNYZMwZD1W/4QGEuElZ2Kv7GpKFoxvsfUIMoEbGzrG8gU20tSd5u0yI14JXn7bTT/RWV/RjEDzTvuU+0op2fOaeQS0Wg63zkZySB94DJIjXDrIYN5aEUsTtNjNPgwD5RgwGWdyra00YRHxDgTcDnm8ET6htgU0scSd31iJq6Ds77r37AjoNfmwbbOJnTVcue8GgaM5ffZanwWVw/ltgE3cVDKFu3nfsHuEJg+Y89G4GEJ8Ef8AWrC/Qe/rpBUi143zZMg6eyWWuU/E+Gw+kkO0IaceNu6E2cdKEFgIIoWT2XUcal/rut0cBVUI2I6S8V1cLZWDMafkAQtZFSFibn7TorWilYqkkWCeXyFBDz7H1Fewz1RxmDlKOG5Fqzf4HMegux7tFQwdiDfcnhYVteOq645zqdyCYVGs/pFQpx86nt1zQGU9ZkB/X9iaS4ur1pqKdHXQPey2izu1sWhPn0HdNmnhIGbgPZSnLR3LeAaEPODng+KEsdHzWF4EuilJTIZJEvDj4j7wvitD7YfeFJe8nlp0M6EVIgUcwf0ZdULJvjXMJm/RofWCpEr9HUzCmjt8s1I/bnFAsCSsqPl2uye1UfDq5Wz7JxIPQIqXw3r7/Vrx6rB+6WsHzr410hRgXQnkIT/dC65T4PZoy119dOwcqHtG7FR3qFJ/KfSC+jAGq9MLdvhQY5Nd31CAsSqJYl2yJ1cdlS7jXX8ZAu41QpBTeUbVrht2ipzztoDGmG98JtKjRLMpon8Z7PAc4hIE6sVO2zbCkQYJqP9J0bQrv8RTGWnBDQPWnQG/v36Ye7+pFZzbKMNqMdSrvex+q88B6ibNl0vGAUNjgujgI8JfbKHc1c+m8w1Iw7oI3T+g3juSdy8YGt6UhaTqOdldzKgxkEjPcSSBgJw1+ZkDPb46vKpG3H9Hqk3aDmyf05sjsMuC44tHwC/a/a1e8WiZerKi2r1VF915JcwmAOTYfouzNfFIq7/UViO0dD5SqxyYahADAF2ubCum1wp0ZDtlxYiPAqporcHEOv6ZiExcqXA8aNUmy75C0XCRFaWiNx5uf65NfVpPe6+Tmmqp7Xo9i4QNwjquNhwm9TFgWwiKlZ6X6rnPZaB12T84PqK6v9/OHvXGhbXhNodsB9lEr31e/NKt1OmeEVupPfM2aNh1+L9uvMeCiQ0iRgez5YSRqLMouDISANXdGd620W92Th0e9VtE0RdGaRIqm3z3kuq2yfRfQSxhk+X3vSwtvV8wotwutHtG4VWiXVy4ItFNG7tfpvO/9lUV/5aXNi/4uGFgSInqFbqVqE19dm0F4Tww2dW62xiZG0Csx2GJ7sLlS8ZUzJsaAMaBiDFKNGzOj9zQ2bqr35CNtKtYOmI9ExRgwe0DFGDCbSMXsAfMTqVi8QBhU6QIWotKbH5KBzE2ujhXTNCuVin7Zb208NbvFIjWWiyVjp1w2rMpHW6t+X6J1Ltr7v2VZ+IAEuPWp2A+JYE2MARMTExMTE9NL9H+ejQdiXx7KEgAAAABJRU5ErkJggg==;" vertex="1" parent="1">
          <mxGeometry x="698.0899999999999" y="301" width="93.46" height="70" as="geometry" />
        </mxCell>
        <mxCell id="qRNp06yotatBLVblW4fN-37" value="&lt;b&gt;&lt;font style=&quot;color: rgb(0, 0, 0);&quot;&gt;GAETWAY MICROSERVICE&lt;/font&gt;&lt;/b&gt;" style="text;html=1;align=center;verticalAlign=middle;resizable=0;points=[];autosize=1;strokeColor=none;fillColor=none;" vertex="1" parent="1">
          <mxGeometry x="110" y="230" width="180" height="30" as="geometry" />
        </mxCell>
        <mxCell id="qRNp06yotatBLVblW4fN-38" value="&lt;b&gt;&lt;font style=&quot;color: rgb(0, 0, 0);&quot;&gt;USER SERVICE&lt;/font&gt;&lt;/b&gt;" style="text;html=1;align=center;verticalAlign=middle;resizable=0;points=[];autosize=1;strokeColor=none;fillColor=none;" vertex="1" parent="1">
          <mxGeometry x="34" y="441" width="110" height="30" as="geometry" />
        </mxCell>
        <mxCell id="qRNp06yotatBLVblW4fN-39" value="&lt;b&gt;&lt;font style=&quot;color: rgb(0, 0, 0);&quot;&gt;BLOG SERVICE&lt;/font&gt;&lt;/b&gt;" style="text;html=1;align=center;verticalAlign=middle;resizable=0;points=[];autosize=1;strokeColor=none;fillColor=none;" vertex="1" parent="1">
          <mxGeometry x="241.75" y="441" width="110" height="30" as="geometry" />
        </mxCell>
        <mxCell id="qRNp06yotatBLVblW4fN-40" value="&lt;b&gt;&lt;font style=&quot;color: rgb(0, 0, 0);&quot;&gt;CLOUDINARY&lt;br&gt;CLOUD&lt;/font&gt;&lt;/b&gt;" style="text;html=1;align=center;verticalAlign=middle;resizable=0;points=[];autosize=1;strokeColor=none;fillColor=none;" vertex="1" parent="1">
          <mxGeometry x="246.75" y="786" width="100" height="40" as="geometry" />
        </mxCell>
        <mxCell id="qRNp06yotatBLVblW4fN-42" value="&lt;b&gt;&lt;font style=&quot;color: rgb(0, 0, 0);&quot;&gt;ENGINE SERVICE&lt;/font&gt;&lt;/b&gt;" style="text;html=1;align=center;verticalAlign=middle;resizable=0;points=[];autosize=1;strokeColor=none;fillColor=none;" vertex="1" parent="1">
          <mxGeometry x="480.75" y="163" width="130" height="30" as="geometry" />
        </mxCell>
        <mxCell id="qRNp06yotatBLVblW4fN-43" value="&lt;b&gt;&lt;font style=&quot;color: rgb(0, 0, 0);&quot;&gt;RabbitMQ&lt;/font&gt;&lt;/b&gt;" style="text;html=1;align=center;verticalAlign=middle;resizable=0;points=[];autosize=1;strokeColor=none;fillColor=none;" vertex="1" parent="1">
          <mxGeometry x="704" y="141" width="80" height="30" as="geometry" />
        </mxCell>
        <mxCell id="qRNp06yotatBLVblW4fN-44" value="&lt;b&gt;TypeSense&lt;/b&gt;" style="text;html=1;align=center;verticalAlign=middle;resizable=0;points=[];autosize=1;strokeColor=none;fillColor=none;" vertex="1" parent="1">
          <mxGeometry x="704" y="380" width="90" height="30" as="geometry" />
        </mxCell>
        <mxCell id="qRNp06yotatBLVblW4fN-45" value="&lt;b&gt;MongoDB&lt;/b&gt;" style="text;html=1;align=center;verticalAlign=middle;resizable=0;points=[];autosize=1;strokeColor=none;fillColor=none;" vertex="1" parent="1">
          <mxGeometry x="500.20000000000005" y="991" width="80" height="30" as="geometry" />
        </mxCell>
      </root>
    </mxGraphModel>
  </diagram>
</mxfile>
